<?xml version="1.0" encoding="UTF-8"?>
<svg id="Layer_1" data-name="Layer 1" xmlns="http://www.w3.org/2000/svg" viewBox="0 0 50 50">
  <defs>
    <style>
      .cls-1 {
        fill: #fff;
      }

      .cls-1, .cls-2 {
        stroke: #008083;
        stroke-linecap: round;
        stroke-linejoin: round;
        stroke-width: 1.1px;
      }

      .cls-3 {
        fill: #008083;
        opacity: .2;
      }

      .cls-2 {
        fill: #d3e1e1;
      }
    </style>
  </defs>
  <ellipse class="cls-3" cx="28.24" cy="41.21" rx="18.13" ry="1.2"/>
  <rect class="cls-1" x="20.75" y="5.87" width="2.9" height="13.94" rx="1.45" ry="1.45" transform="translate(15.58 -11.94) rotate(45)"/>
  <rect class="cls-1" x="30.26" y="15.38" width="2.9" height="13.94" rx="1.45" ry="1.45" transform="translate(25.09 -15.87) rotate(45)"/>
  <rect class="cls-2" x="21.62" y="12.58" width="10.55" height="10.13" transform="translate(20.36 -13.85) rotate(45)"/>
  <path class="cls-2" d="M13.6,17.89h3.27v21.2c0,.9-.73,1.63-1.63,1.63h0c-.9,0-1.63-.73-1.63-1.63v-21.2h0Z" transform="translate(25.19 -2.19) rotate(45)"/>
  <g>
    <path class="cls-1" d="M26.08,34.09h12.82c.4,0,.73.33.73.73v1.51h-14.27v-1.51c0-.4.33-.73.73-.73Z"/>
    <path class="cls-2" d="M24.09,36.32h16.79c.4,0,.73.33.73.73v3.57h-18.24v-3.57c0-.4.33-.73.73-.73Z"/>
  </g>
</svg>